<?xml version="1.0" encoding="utf-8"?>
<!DOCTYPE svg PUBLIC "-//W3C//DTD SVG 1.0//EN" "http://www.w3.org/TR/2001/REC-SVG-20010904/DTD/svg10.dtd">
<svg version="1.0" xmlns="http://www.w3.org/2000/svg" width="1500px" height="500px" viewBox="0 0 1500 500" preserveAspectRatio="xMidYMid meet">
 <g fill="#000000">
  <path d="M0 250 l0 -250 750 0 750 0 0 250 0 250 -750 0 -750 0 0 -250z m606.50 75.70 c0 -1.20 -0.20 -2.20 -0.50 -2.20 -0.25 0 -0.50 1.15 -0.50 2.55 0 1.55 0.20 2.40 0.50 2.20 0.30 -0.15 0.50 -1.30 0.50 -2.55z m99 -6.40 c-1.80 -1.80 -2.05 -1.90 -1.75 -0.80 0.50 1.65 3.45 4.50 3.65 3.55 0.10 -0.35 -0.75 -1.60 -1.90 -2.75z m98 -0.05 c-0.05 -2.30 -0.10 -2.40 -0.75 -1.55 -0.80 1.05 -1 3.15 -0.45 4.55 0.55 1.40 1.20 -0.20 1.20 -3z m-194 -3 c0 -1.40 0.30 -3 0.75 -3.60 0.65 -0.95 0.65 -1.10 -0.05 -1.35 -1.10 -0.45 -4.20 -0.35 -4.20 0.10 0 0.20 0.45 0.65 1 1 0.85 0.50 1 1.15 1 4.50 0.05 3.50 0.10 3.75 0.75 2.90 0.45 -0.60 0.75 -2.05 0.75 -3.55z m295 0.05 c0 -0.40 -0.90 -1.70 -2 -2.85 -1.40 -1.50 -2 -1.90 -2 -1.30 0 0.70 3.25 4.85 3.80 4.85 0.10 0 0.20 -0.30 0.20 -0.70z m-202.25 -5.15 c0.15 -0.60 0.75 -1.60 1.35 -2.15 1 -0.90 1 -1 0.15 -1 -1.65 0 -2.75 1.50 -2.75 3.75 0 2.30 0.65 3.55 0.90 1.65 0.05 -0.60 0.25 -1.65 0.35 -2.25z m104.25 -1.20 c0 -1.95 0.25 -3.05 0.75 -3.45 1.10 -0.90 0.10 -1.50 -2.70 -1.50 l-2.15 0 1.60 1.50 c1.60 1.50 1.65 1.55 1.30 4.90 -0.25 3.05 -0.25 3.25 0.45 2.40 0.45 -0.60 0.75 -2.05 0.75 -3.85z m94 -6.95 l1.25 -1.05 -1.75 0.35 c-0.95 0.15 -1.90 0.60 -2.10 0.90 -0.60 0.85 -0.45 3.75 0.20 4.95 0.60 1 0.65 0.90 0.90 -1.50 0.20 -1.90 0.60 -2.85 1.50 -3.65z m-297 4.75 c0 -1 -1.80 -2.75 -2.85 -2.75 -0.65 0 -0.40 0.45 0.85 1.75 1.95 2 2 2.05 2 1z m-5.90 -6 c-0.10 -0.70 -0.75 -1.70 -1.40 -2.20 -0.75 -0.60 -1.20 -1.45 -1.20 -2.35 0 -0.80 -0.25 -1.80 -0.50 -2.20 -0.35 -0.55 -0.50 -0.05 -0.50 1.75 0 2.15 0.20 2.70 1.85 4.35 1 1.05 1.90 1.90 1.95 1.90 0.05 0 -0.05 -0.55 -0.20 -1.25z m116.05 -4.55 c0.15 -1 0.85 -2.30 1.60 -2.95 0.70 -0.65 1.25 -1.65 1.25 -2.20 0 -0.85 -0.35 -0.65 -2 1.05 -1.45 1.55 -2 2.50 -2 3.65 0 1.15 -0.45 1.95 -1.50 2.90 -0.80 0.75 -1.50 1.85 -1.50 2.50 0 1.80 3.80 -2.65 4.15 -4.95z m86.15 3.55 c-0.50 -0.70 -1.30 -1.25 -1.95 -1.25 -1 0 -0.95 0.15 0.65 1.65 1.90 1.75 2.55 1.55 1.30 -0.40z m-5.30 -4.75 c0 -0.60 -0.55 -1.60 -1.25 -2.30 -0.70 -0.70 -1.25 -1.75 -1.25 -2.35 -0.05 -0.60 -0.35 -1.65 -0.75 -2.35 -0.70 -1.20 -0.70 -1.20 -0.75 1.20 0 2.10 0.25 2.70 1.90 4.55 2.20 2.55 2.10 2.50 2.10 1.25z m116.15 -4.70 c0.15 -0.90 0.85 -2.25 1.55 -2.95 0.70 -0.70 1.30 -1.80 1.25 -2.45 0 -1.10 -0.05 -1.10 -0.60 -0.20 -0.35 0.50 -1.20 1.50 -1.95 2.20 -0.80 0.70 -1.40 1.80 -1.40 2.45 0 1.40 -0.70 2.85 -2.05 4.20 -0.50 0.50 -0.95 1.30 -0.95 1.80 0 1.45 3.85 -3.20 4.15 -5.05z m-319.05 -16.05 c-0.20 -8.45 -0.35 -9.60 -1.20 -10.55 -0.50 -0.60 -1.05 -1.90 -1.25 -2.90 -0.35 -2.10 -4.15 -6.45 -4.15 -4.75 0 0.50 0.70 1.70 1.50 2.60 0.85 1 1.50 2.30 1.50 3.05 0 0.85 0.55 1.85 1.40 2.60 l1.35 1.30 0.20 12.30 c0.15 8.25 0.35 11.25 0.55 9.10 0.20 -1.80 0.25 -7.50 0.10 -12.75z m127.90 10.85 c0 -1.60 -0.75 -0.90 -1.20 1.10 -0.30 1.30 -0.25 1.40 0.40 0.85 0.45 -0.40 0.80 -1.25 0.80 -1.95z m-84.75 -1.50 c-0.10 -0.10 -0.65 -0.05 -1.30 0.15 -0.80 0.25 -0.90 0.45 -0.45 0.75 0.55 0.35 2.15 -0.50 1.75 -0.90z m43.75 -0.65 c0 -0.55 -0.20 -0.85 -0.50 -0.70 -0.25 0.15 -0.50 0.75 -0.50 1.30 0 0.55 0.25 0.85 0.50 0.70 0.30 -0.15 0.50 -0.75 0.50 -1.30z m110.35 -14.10 c-0.25 -9.90 -0.25 -9.90 -1.55 -11.30 -0.80 -0.85 -1.30 -1.90 -1.30 -2.85 0 -1.10 -0.55 -2.05 -2 -3.45 -1.55 -1.50 -2 -1.75 -2 -1.05 0 0.50 0.70 1.70 1.50 2.65 0.90 1 1.50 2.25 1.50 3.10 0 0.85 0.50 1.90 1.20 2.60 1.20 1.20 1.20 1.30 1.35 12.95 0.05 6.45 0.25 12 0.40 12.25 0.70 1.25 1.10 -5.85 0.90 -14.90z m-66.45 0.75 c0.20 -11.75 0 -14 -1.30 -14.45 -1.20 -0.45 -1.60 -1.15 -1.60 -3 0 -1.15 -0.55 -2.10 -2 -3.65 -1.90 -1.95 -2 -2 -2 -0.85 0 0.75 0.50 1.55 1.25 2.05 0.85 0.55 1.25 1.30 1.25 2.25 0 0.80 0.65 2.20 1.50 3.30 l1.50 1.90 0 12.25 c0 9.85 0.15 12.20 0.65 11.70 0.45 -0.45 0.65 -3.65 0.75 -11.50z m193.85 9.90 c0.35 -1.10 0.30 -1.15 -0.45 -0.55 -0.45 0.35 -0.80 1.15 -0.80 1.70 0 1.30 0.75 0.60 1.25 -1.15z m-210 -1 c-0.15 -0.25 -0.65 -0.50 -1.05 -0.50 -0.40 0 -0.60 0.25 -0.45 0.50 0.15 0.30 0.65 0.50 1.05 0.50 0.40 0 0.60 -0.20 0.45 -0.50z m-5.90 -3.60 c-1.30 -1.35 -1.70 -1.50 -2.05 -0.95 -0.55 0.85 1.30 2.55 2.70 2.55 0.75 0 0.60 -0.30 -0.65 -1.60z m219.15 -12.55 l0 -11.45 -1.50 -1.50 c-1 -0.95 -1.50 -2 -1.50 -2.95 0 -1.05 -0.60 -2.10 -2 -3.55 -1.65 -1.75 -2 -1.95 -2 -1.10 0 0.55 0.55 1.50 1.20 2.05 0.70 0.60 1.30 1.85 1.50 3.05 0.20 1.45 0.70 2.35 1.55 2.90 l1.25 0.80 0 12.85 c0.05 11.35 0.10 12.65 0.75 11.55 0.55 -1 0.70 -3.70 0.75 -12.65z m-95.75 -1.35 c0.20 -0.30 -0.30 -0.50 -1.20 -0.50 -0.80 0 -1.65 0.25 -1.80 0.50 -0.20 0.30 0.30 0.50 1.20 0.50 0.80 0 1.65 -0.20 1.80 -0.50z m31.65 -1.10 c-0.30 -0.90 -0.65 -1.35 -0.75 -1.05 -0.20 0.55 0.65 2.65 1.10 2.65 0.10 0 -0.05 -0.75 -0.35 -1.60z m11.60 -0.50 c0 -0.25 -0.20 -0.40 -0.50 -0.40 -0.25 0 -0.50 0.50 -0.50 1.15 0 0.90 0.10 0.95 0.50 0.35 0.25 -0.40 0.50 -0.90 0.50 -1.10z m27.90 -4 c-0.25 -0.75 -2.90 -1.20 -2.90 -0.45 0 0.55 0.85 0.95 2.15 1 0.55 0.05 0.85 -0.20 0.75 -0.55z m-4.90 -2.15 c0 -0.15 -0.75 -1 -1.60 -1.85 -1.45 -1.45 -1.65 -1.50 -1.85 -0.65 -0.10 0.55 0.30 1.35 0.95 1.85 1.05 0.85 2.50 1.20 2.50 0.65z m-306.75 -4 c-0.15 -1.25 -0.50 -2.35 -0.80 -2.50 -0.65 -0.45 -0.55 3.60 0.15 4.90 0.80 1.50 1.10 0.40 0.65 -2.40z m197.15 -5.30 c-0.40 -3.70 -1.40 -4.40 -1.40 -0.90 0 1.55 0.15 2.95 0.35 3.10 0.90 0.90 1.25 0.15 1.05 -2.20z m-200.75 -6 c-0.20 -0.20 -0.30 0.90 -0.15 2.45 l0.25 2.85 0.15 -2.45 c0.10 -1.35 0 -2.60 -0.25 -2.85z m136.85 -0.85 c0 -1.30 -0.20 -2.05 -0.50 -1.85 -0.25 0.15 -0.50 1.50 -0.50 2.90 0 1.85 0.15 2.40 0.50 1.85 0.25 -0.40 0.50 -1.70 0.50 -2.90z m60.80 -3.90 c-0.20 -0.65 -0.55 -1.20 -0.80 -1.20 -0.70 0 -0.60 3.35 0.15 4.65 0.55 1.05 0.60 1.05 0.75 -0.60 0.10 -0.95 0.05 -2.20 -0.10 -2.85z m-199.25 -23.55 c0.45 -0.50 3 -0.65 11.40 -0.65 9.60 -0.05 10.65 -0.10 9.55 -0.75 -1.50 -0.85 -18.60 -1.05 -20.70 -0.25 -0.75 0.25 -1.45 1.05 -1.65 1.85 -0.60 2.05 -0.50 22.15 0.10 23.90 0.35 1.10 0.55 -1.85 0.65 -10.95 0.05 -8.20 0.30 -12.70 0.65 -13.15z m335.15 24.05 c0.50 -1.35 0.35 -4.95 -0.20 -4.40 -0.70 0.70 -1.25 5.20 -0.60 5.20 0.25 0 0.65 -0.35 0.80 -0.80z m-194 -2.80 c0.35 -1.45 0.40 -2.65 0.05 -2.30 -0.55 0.50 -1.15 3.40 -0.75 3.40 0.20 0 0.50 -0.50 0.70 -1.10z m55.85 -26.75 c0.45 -0.50 3 -0.65 11.35 -0.65 8.50 0 10.65 -0.15 10.20 -0.60 -0.45 -0.45 -3.60 -0.60 -11.35 -0.65 -9.05 0 -10.85 0.10 -11.25 0.75 -0.55 0.90 -0.70 25.15 -0.10 25.70 0.20 0.20 0.40 -5.05 0.50 -11.75 0.05 -7.90 0.30 -12.35 0.65 -12.80z m-52.55 19.05 c0 -1.15 0.30 -1.85 1 -2.20 0.55 -0.30 1 -0.85 1 -1.25 0 -0.40 0.25 -0.75 0.50 -0.75 0.30 0 0.50 -1.15 0.50 -2.60 0 -2.40 -0.05 -2.50 -0.75 -1.60 -0.40 0.50 -0.75 1.60 -0.75 2.40 0 0.80 -0.40 1.80 -0.90 2.25 -1.45 1.20 -2.10 2.80 -2.10 4.85 0 1.55 0.10 1.75 0.75 1.20 0.40 -0.35 0.75 -1.35 0.75 -2.30z m193.70 0.80 c0.35 -1.20 0.30 -1.20 -0.40 -0.30 -0.45 0.55 -0.80 1.35 -0.80 1.75 0 1.05 0.80 0.10 1.20 -1.45z m-288.95 -5.55 c1.80 -1.85 1.85 -2.05 0.75 -1.70 -0.70 0.20 -1.60 0.65 -2 1 -0.40 0.35 -1.40 0.75 -2.20 0.85 -1.40 0.15 -1.45 0.20 -0.60 1.05 1.25 1.25 1.80 1.05 4.05 -1.20z m292.25 -1.10 c0 -0.95 0.45 -1.90 1.25 -2.65 0.85 -0.75 1.25 -1.70 1.25 -2.80 0 -0.90 0.15 -2.20 0.30 -2.90 0.30 -1.20 0.30 -1.25 -0.45 -0.25 -0.45 0.55 -0.85 1.60 -0.85 2.30 0 0.70 -0.40 1.70 -0.95 2.25 -1.50 1.65 -2.05 3 -2.05 5.30 0.05 2 0.10 2.10 0.75 1.20 0.40 -0.55 0.75 -1.65 0.75 -2.45z m-227.80 -3.25 c-0.45 -0.10 -1.40 0.40 -2.15 1.10 -1.15 1.10 -1.80 1.30 -4.15 1.30 -2.20 0 -2.90 -0.20 -3.45 -1 -0.40 -0.50 -1.35 -1.10 -2.20 -1.30 l-1.50 -0.35 1.95 1.80 c1.05 1 2.10 1.85 2.25 1.85 1.35 0 4.05 1.20 4.05 1.75 0 0.40 1.35 -0.55 3 -2.15 2.20 -2.05 2.80 -2.90 2.20 -3z m-74.70 0.40 c-1 -0.65 -5.15 -0.65 -4.75 0 0.15 0.30 1.50 0.50 2.90 0.50 1.85 0 2.40 -0.15 1.85 -0.50z m23.25 0 c0.40 -0.65 -6.75 -0.65 -7.75 0 -0.50 0.35 0.50 0.50 3.35 0.50 2.25 0 4.25 -0.20 4.40 -0.50z m183.45 -1.35 c1.50 -1.50 1.70 -1.95 1.05 -2.05 -0.45 -0.10 -1.35 0.30 -1.95 0.85 -0.60 0.60 -1.65 1.05 -2.30 1.05 -1.10 0 -1.15 0.05 -0.25 1 0.50 0.55 1.05 1 1.25 1 0.20 0 1.20 -0.85 2.20 -1.85z m63.80 -2.80 c0 -0.20 0.60 -0.95 1.40 -1.60 l1.35 -1.20 -1.25 0.30 c-0.70 0.15 -1.85 0.95 -2.60 1.70 -1.15 1.25 -1.75 1.45 -3.90 1.45 -2.15 0 -2.75 -0.20 -3.90 -1.45 -1.20 -1.30 -3.60 -2.50 -3.60 -1.85 0 0.15 0.95 1.15 2.15 2.25 1.40 1.35 2.55 2.05 3.50 2.05 0.75 0 1.75 0.45 2.20 0.95 0.80 0.95 0.85 0.95 2.70 -0.60 1.05 -0.90 1.95 -1.80 1.95 -2z m-279 1.15 c-1 -0.65 -5.15 -0.65 -4.75 0 0.15 0.30 1.50 0.50 2.90 0.50 1.85 0 2.40 -0.15 1.85 -0.50z m66.50 0 c-1.05 -0.65 -30.85 -0.65 -31.25 0 -0.20 0.35 5.20 0.50 15.85 0.50 10.60 0 15.90 -0.20 15.40 -0.50z m52.90 -6.15 c-0.05 -2.90 -0.35 -5.45 -0.55 -5.65 -0.55 -0.60 -6.45 -0.90 -9.10 -0.50 -3.95 0.60 -2.45 1.30 2.75 1.30 4.95 0 5.05 0 5.50 1.30 0.30 0.70 0.50 3.20 0.50 5.60 0 3.10 0.15 4.15 0.55 3.75 0.35 -0.35 0.50 -2.45 0.35 -5.80z m-26.15 2.40 c0.65 -0.75 1.95 -1.45 2.95 -1.60 2.60 -0.40 2.75 -1.15 0.20 -1.15 -1.80 0 -2.50 0.30 -4.35 2 -1.85 1.70 -2 2 -1.10 2 0.60 0 1.65 -0.55 2.30 -1.25z m112.50 0.80 c-0.30 -0.25 -1.85 -0.55 -3.45 -0.65 -2.55 -0.20 -2.85 -0.15 -2.05 0.45 1.05 0.70 6.25 0.95 5.50 0.20z m23.15 -0.15 c0.70 -0.85 -7.15 -0.85 -8 0 -0.45 0.45 0.35 0.60 3.45 0.60 2.60 0 4.20 -0.20 4.55 -0.60z m-32.15 -2.90 c-0.15 -0.25 -1.30 -0.50 -2.55 -0.50 -1.40 0 -2.15 0.20 -1.95 0.50 0.15 0.30 1.30 0.50 2.55 0.50 1.40 0 2.15 -0.20 1.95 -0.50z m66.25 0 c-0.45 -0.30 -6.75 -0.50 -15.25 -0.50 -8.50 0 -14.80 0.20 -15.25 0.50 -0.50 0.30 4.75 0.50 15.25 0.50 10.50 0 15.75 -0.20 15.25 -0.50z m53.50 -5.85 c0 -6.05 -0.10 -6.15 -6.40 -6.15 -2.65 0 -5.20 0.25 -5.60 0.50 -0.50 0.35 0.95 0.50 4.60 0.50 2.95 0 5.45 0.20 5.60 0.45 0.15 0.25 0.45 2.70 0.60 5.50 0.45 6.20 1.20 5.70 1.20 -0.80z m-212.70 3.05 c0.90 -0.70 0.90 -0.75 -0.30 -0.40 -1.55 0.40 -2.50 1.20 -1.45 1.20 0.40 0 1.20 -0.35 1.75 -0.80z m186.85 -1.25 c0.50 -0.50 1.50 -0.95 2.25 -0.95 0.75 0 1.70 -0.25 2.10 -0.50 0.55 -0.35 0.05 -0.50 -1.70 -0.50 -2.15 0 -2.65 0.20 -4.45 2 -1.90 1.95 -1.95 2 -0.55 1.50 0.80 -0.30 1.85 -1 2.35 -1.55z m10.35 -4.70 c0.50 -0.60 0.50 -0.75 -0.15 -0.75 -0.40 0 -1 0.35 -1.35 0.75 -0.50 0.60 -0.50 0.75 0.15 0.75 0.40 0 1 -0.35 1.35 -0.75z"/>
 </g>
 <g fill="#ffffff">
  <path d="M604.60 330.40 c-0.70 -0.70 -0.85 -8.40 -0.15 -8.40 1.30 0 2.05 -1.70 2.05 -4.45 0 -2.35 -0.20 -3.05 -1.10 -3.90 -0.65 -0.55 -3.80 -3.70 -7.05 -7 l-5.85 -6 -0.20 -3.15 c-0.10 -2.70 -0.35 -3.35 -1.50 -4.30 l-1.30 -1.15 -0.15 -12 -0.10 -11.95 -1.35 -1.30 c-0.85 -0.75 -1.40 -1.75 -1.40 -2.60 0 -0.75 -0.65 -2.05 -1.50 -3.05 -0.90 -1 -1.50 -2.25 -1.50 -3.10 0 -0.90 -0.55 -2 -1.50 -2.95 -1.35 -1.40 -1.50 -1.95 -1.50 -4.65 0 -2.60 -0.15 -3.20 -1.20 -4 -0.95 -0.75 -1.20 -1.50 -1.40 -4.20 -0.25 -2.65 -0.50 -3.50 -1.55 -4.45 -0.90 -0.85 -1.35 -1.90 -1.60 -3.90 -0.45 -3.55 -0.05 -23.90 0.45 -25.05 0.75 -1.60 2.60 -1.85 13.30 -1.85 11.05 0 12.40 0.20 13.75 2.35 0.70 1 1.15 1.15 4 1.15 2.80 0 3.35 0.15 4.40 1.30 1 1.05 1.90 1.40 4.45 1.65 2.85 0.30 3.40 0.55 5.35 2.45 2.40 2.30 2.80 2.45 4.05 1.35 0.50 -0.45 1.75 -0.95 2.80 -1.10 1.10 -0.15 2.45 -0.85 3.05 -1.50 1 -1.05 1.55 -1.15 5.45 -1.15 4.15 0 4.35 -0.05 5.70 -1.50 l1.40 -1.50 16.55 0 16.50 0 1.50 1.45 c0.85 0.85 2.20 1.55 3.50 1.75 1.25 0.20 2.20 0.65 2.55 1.30 0.75 1.40 3.05 1.30 4.45 -0.20 0.60 -0.65 1.90 -1.30 2.85 -1.45 0.95 -0.15 2.40 -0.95 3.15 -1.70 0.80 -0.75 1.75 -1.70 2.15 -2.05 0.35 -0.35 1.65 -1.65 2.85 -2.90 2.10 -2.10 2.35 -2.20 5.05 -2.20 2.40 0 3.05 -0.20 4.15 -1.30 0.80 -0.80 2.10 -1.40 3.35 -1.55 1.55 -0.20 2.25 -0.60 2.60 -1.45 0.40 -0.85 1.10 -1.25 2.65 -1.50 2.80 -0.40 11.55 -0.05 12.10 0.45 0.20 0.25 0.45 3.55 0.55 7.35 l0.15 6.95 -1.25 0.80 c-1.15 0.80 -1.30 1.20 -1.30 4.05 0 1.80 -0.20 3.20 -0.50 3.20 -0.25 0 -0.50 0.35 -0.50 0.75 0 0.40 -0.45 0.95 -1 1.25 -0.70 0.35 -1 1.05 -1 2.15 0 1.20 -0.45 2.10 -1.50 3.10 -0.80 0.80 -1.50 1.90 -1.50 2.45 0 2 -0.60 3.20 -1.80 3.75 -1.10 0.50 -1.20 0.85 -1.20 3.80 0 2.60 -0.20 3.45 -1 4.25 -0.55 0.55 -1 1.25 -1 1.55 0 0.30 1.10 1.65 2.50 3 2 1.95 2.50 2.80 2.50 4.05 0 1.90 0.40 2.60 1.60 3.05 1.30 0.45 1.50 2.65 1.30 16.05 l-0.15 12.40 -1.35 1.10 c-1.05 0.85 -1.40 1.50 -1.40 2.90 0 1.45 -0.30 2.05 -1.50 2.90 -1.15 0.85 -1.50 1.45 -1.50 2.80 0 1.25 -0.40 2.10 -1.35 3 -0.90 0.80 -1.30 1.75 -1.30 2.80 0 1.30 -0.85 2.35 -5.35 6.85 -5.10 5.05 -6.50 6.80 -6.50 8.05 0 0.30 1.20 1.85 2.70 3.40 2.10 2.25 2.75 3.25 2.80 4.60 0.15 2.65 0.10 2.80 -1.10 3.35 -1 0.45 -1.45 0.25 -3.35 -1.70 -1.55 -1.65 -2.25 -2.75 -2.40 -4.20 -0.20 -1.30 -0.65 -2.15 -1.45 -2.70 -1.10 -0.70 -1.20 -1.15 -1.20 -4.45 0 -4.05 0.75 -5.30 3.15 -5.30 1.95 0 5.35 -3.50 5.35 -5.50 0 -1.05 0.45 -1.90 1.50 -2.85 1.05 -0.95 1.50 -1.75 1.50 -2.90 0 -1.10 0.55 -2.10 1.95 -3.60 1.05 -1.10 2.30 -2.15 2.70 -2.30 0.40 -0.15 0.85 -1.25 1.05 -2.75 0.25 -1.90 0.60 -2.70 1.55 -3.30 l1.25 -0.80 0 -11.45 0 -11.40 -1.50 -1.90 c-0.85 -1.10 -1.50 -2.50 -1.50 -3.30 0 -0.95 -0.40 -1.70 -1.25 -2.25 -0.95 -0.60 -1.25 -1.25 -1.25 -2.55 0 -1.30 -0.40 -2.10 -1.50 -3.15 -1.85 -1.75 -1.85 -2.15 0 -3.85 1.35 -1.20 1.50 -1.60 1.50 -4.40 0 -2.65 0.20 -3.25 1.25 -4.25 0.70 -0.65 1.25 -1.40 1.25 -1.70 0 -1.50 1.15 -4.30 1.70 -4.30 0.90 0 1.30 -1.15 1.30 -3.80 0 -2.45 0.60 -3.95 2.10 -5.25 0.50 -0.45 0.90 -1.50 0.90 -2.30 0 -0.95 0.50 -2 1.35 -2.85 1.10 -1.10 1.35 -1.85 1.50 -4.70 0.15 -1.85 0 -3.95 -0.30 -4.70 -0.50 -1.35 -0.60 -1.40 -4.60 -1.40 -3.80 0 -4.20 0.10 -5.80 1.50 -1 0.90 -2.25 1.50 -3.10 1.50 -0.80 0 -1.85 0.50 -2.50 1.20 -0.60 0.65 -1.90 1.30 -2.90 1.45 -0.95 0.15 -2.25 0.90 -2.90 1.60 -0.80 0.80 -1.75 1.25 -2.75 1.25 -1.35 0 -2.40 0.85 -7.20 5.75 -5.75 5.90 -7.60 6.95 -8.15 4.75 -0.20 -0.80 -2.65 -2 -4.20 -2 -0.15 0 -1.60 -1.25 -3.25 -2.75 l-2.95 -2.75 -15.60 0 -15.60 0 -1.15 1.50 c-1.05 1.45 -1.15 1.50 -5.60 1.50 l-4.55 0 -3.10 3 c-4.20 4.05 -5.25 4 -9.45 -0.50 -2.30 -2.50 -2.35 -2.50 -5.40 -2.50 -2.80 0 -3.25 -0.15 -4.55 -1.50 -1.25 -1.30 -1.75 -1.50 -4.30 -1.50 -2.55 0 -3.05 -0.15 -4.30 -1.50 l-1.40 -1.50 -9.75 0 c-6.95 0 -9.95 0.15 -10.40 0.60 -0.45 0.45 -0.60 3.85 -0.60 12.20 l0 11.60 1.20 0.75 c1 0.70 1.20 1.30 1.40 4.35 0.15 3.15 0.35 3.65 1.55 4.65 1.10 0.90 1.45 1.65 1.65 3.85 0.35 3.80 0.65 5 1.15 5 1.10 0 4.45 4.10 4.70 5.80 0.20 1 0.85 2.40 1.45 3.05 1.15 1.20 1.15 1.45 1.25 14.05 0.05 7.05 0.10 12.95 0.15 13.10 0 0.15 0.70 1 1.50 1.90 1 1.10 1.50 2.20 1.50 3.20 0 1 0.40 1.80 1.20 2.45 0.75 0.60 1.35 1.70 1.55 2.90 0.30 1.80 0.50 2 2.50 2.50 2.50 0.65 2.85 1.05 3.25 3.80 l0.25 2 3.30 0.25 c4.85 0.35 6.10 1.80 3.70 4.20 -1.05 1.05 -1.25 1.75 -1.25 4.10 0 2.45 -0.20 2.95 -1.50 4.20 -1.35 1.25 -1.50 1.75 -1.50 4.25 0 1.55 -0.25 3.25 -0.50 3.80 -0.60 1.05 -2 1.25 -2.90 0.35z"/>
  <path d="M801 324.05 c-0.25 -0.55 -0.50 -2.35 -0.50 -4.05 0 -2.70 0.15 -3.20 1.45 -4.40 1.05 -1 1.50 -1.95 1.70 -3.75 l0.25 -2.45 -7.45 -7.50 -7.45 -7.55 0 -3.10 c0 -2.80 -0.10 -3.15 -1.45 -4.15 l-1.50 -1.10 -0.05 -11.80 0 -11.85 -1.25 -1.25 c-0.75 -0.75 -1.25 -1.80 -1.25 -2.65 0 -0.85 -0.60 -2.10 -1.45 -3.05 -0.75 -0.90 -1.55 -2.50 -1.75 -3.55 -0.20 -1.15 -0.80 -2.15 -1.55 -2.65 -1.10 -0.75 -1.25 -1.15 -1.25 -4.05 0 -2.90 -0.15 -3.45 -1.50 -5 -1.30 -1.45 -1.50 -2.10 -1.50 -4.45 0 -2.30 -0.20 -2.95 -1.25 -3.90 l-1.25 -1.15 0 -13.70 c0 -7.75 0.20 -14 0.50 -14.45 0.40 -0.65 2.35 -0.75 12.65 -0.75 l12.15 0 1.65 1.35 c1.35 1.20 2.10 1.40 4.55 1.40 2.50 0 3.05 0.20 3.90 1.20 0.80 1.05 1.50 1.30 4.30 1.50 3.25 0.25 3.40 0.35 5.75 2.90 l2.45 2.65 1.20 -1.10 c0.75 -0.70 1.85 -1.15 2.80 -1.15 1.10 0 2 -0.45 3.05 -1.60 1.45 -1.60 1.65 -1.65 6.10 -1.75 4.15 -0.10 4.65 -0.20 5.70 -1.40 l1.20 -1.25 16.30 0 16.30 0 1.15 1.20 c0.65 0.60 2.05 1.30 3.10 1.45 1.20 0.20 2.40 0.85 3.25 1.85 1.75 1.85 3.10 1.90 4.75 0.10 0.70 -0.75 2.15 -1.55 3.20 -1.85 1.40 -0.35 3.10 -1.60 6 -4.40 l4 -3.95 3.05 -0.10 c2.60 -0.15 3.20 -0.35 4.60 -1.70 1.15 -1.15 2.15 -1.60 3.25 -1.60 1.10 0 1.75 -0.30 1.95 -0.85 0.55 -1.50 1.20 -1.65 7.75 -1.65 5.10 0 6.50 0.15 7.10 0.80 0.65 0.60 0.80 2 0.80 7 0 6 -0.05 6.30 -1.25 7.40 -0.85 0.80 -1.25 1.70 -1.30 3.10 -0.15 3.20 -0.90 5.65 -1.95 6.20 -0.70 0.40 -1 1.05 -1 2.30 0 1.30 -0.40 2.10 -1.45 3.10 -0.80 0.80 -1.55 2.10 -1.75 3.15 -0.15 1 -0.85 2.30 -1.55 2.95 -1.05 1 -1.25 1.65 -1.25 4 0 2.15 -0.25 3.15 -1 4 -0.55 0.65 -1 1.30 -1 1.50 0 0.50 1.70 2.65 3.55 4.45 0.95 1 1.45 2 1.45 2.95 0 1 0.50 2 1.50 3 l1.50 1.50 0 12.85 c0 13.10 -0.15 14.30 -2 15.60 -0.50 0.35 -1 1.50 -1.20 2.55 -0.20 1.35 -0.70 2.25 -1.55 2.80 -0.95 0.60 -1.25 1.25 -1.25 2.60 0 1.20 -0.40 2.15 -1.30 3.05 -0.70 0.70 -1.40 2.05 -1.55 3 -0.25 1.40 -1.50 3 -5.95 7.55 -3.95 4 -5.70 6.15 -5.70 6.95 0 0.75 1 2.15 2.75 3.90 2.55 2.50 2.75 2.90 2.75 5 0 1.90 -0.20 2.35 -1.10 2.75 -1 0.35 -1.50 0.05 -3.50 -2 -1.40 -1.40 -2.40 -2.90 -2.40 -3.50 0 -0.60 -0.65 -1.90 -1.50 -2.85 -1.35 -1.50 -1.50 -2.05 -1.50 -4.90 0 -4.30 0.20 -4.65 2.90 -5.05 2.95 -0.40 6.10 -3.15 6.10 -5.30 0 -0.75 0.45 -1.85 0.95 -2.35 1.35 -1.35 2.05 -2.75 2.05 -4.15 0 -0.60 0.55 -1.70 1.25 -2.40 3.50 -3.60 4.25 -4.60 4.25 -5.95 0 -0.90 0.50 -1.85 1.50 -2.70 l1.50 -1.35 0 -11.70 0 -11.70 -1.25 -0.80 c-0.85 -0.55 -1.35 -1.45 -1.55 -2.90 -0.20 -1.20 -0.80 -2.45 -1.50 -3.05 -0.65 -0.55 -1.20 -1.50 -1.20 -2.05 0 -1.05 -0.55 -2.20 -2.15 -4.40 -0.95 -1.40 -0.70 -2.70 0.65 -3.15 0.70 -0.20 0.90 -1 1.10 -3.80 0.25 -2.90 0.50 -3.75 1.60 -4.90 0.75 -0.80 1.30 -1.95 1.30 -2.70 0 -0.90 0.55 -1.95 1.50 -2.85 1.30 -1.25 1.50 -1.85 1.50 -4 0 -2.65 0.50 -4 2.05 -5.70 0.55 -0.55 0.95 -1.55 0.95 -2.30 0 -0.75 0.65 -2 1.55 -3 1.55 -1.70 1.55 -1.70 1.20 -5.70 -0.20 -2.25 -0.45 -4.20 -0.55 -4.40 -0.15 -0.25 -2.25 -0.40 -4.65 -0.40 -4.25 0 -4.40 0.05 -5.45 1.50 -0.85 1.10 -1.55 1.50 -2.70 1.50 -1.05 0 -2 0.45 -3 1.50 -0.90 1 -1.90 1.50 -2.85 1.50 -0.80 0 -1.95 0.50 -2.75 1.25 -0.70 0.65 -2.10 1.35 -3.05 1.55 -1.20 0.20 -2.65 1.25 -4.95 3.55 -1.80 1.75 -3.30 3.40 -3.40 3.60 -0.10 0.20 -1.20 1.30 -2.50 2.50 -2.50 2.30 -3.15 2.30 -5 0.10 -0.50 -0.60 -1.50 -1.05 -2.25 -1.05 -0.95 0 -2.15 -0.70 -3.75 -2.25 -1.25 -1.25 -2.40 -2.55 -2.55 -2.90 -0.15 -0.45 -3.95 -0.65 -16.05 -0.70 l-15.90 -0.15 -1.30 1.50 c-1.30 1.45 -1.45 1.50 -5.75 1.50 l-4.45 0 -3.05 3 c-2.60 2.55 -3.35 3 -4.85 3 -1.50 0 -2.20 -0.45 -4.65 -3 l-2.90 -3 -2.95 0 c-2.60 0 -3.15 -0.20 -4.45 -1.45 -1.35 -1.30 -1.85 -1.50 -3.90 -1.35 -2 0.10 -2.70 -0.10 -4.15 -1.30 l-1.75 -1.40 -9.75 0 c-6.95 0 -9.95 0.15 -10.40 0.60 -0.45 0.45 -0.60 3.75 -0.60 11.75 l0 11.15 1.50 1.60 c1.30 1.35 1.50 1.90 1.50 4.50 0 2.55 0.20 3.10 1.35 4.20 1.15 1.05 1.40 1.75 1.55 4.55 0.25 3.30 0.25 3.35 2.90 5.80 2.15 1.95 2.70 2.75 2.70 4 0 1 0.50 2.05 1.40 3 l1.35 1.40 0.10 12.85 c0.10 7.05 0.15 13.25 0.15 13.70 0 0.45 0.40 0.95 0.90 1.15 1.05 0.30 2.10 2.25 2.10 3.75 0 0.55 0.55 1.50 1.25 2.20 0.70 0.70 1.25 1.85 1.25 2.55 0 2.25 0.85 3.25 2.75 3.25 1.85 0 3.25 1.40 3.25 3.25 0 1.65 1 2.25 3.75 2.25 2.65 0 4.75 1 4.75 2.30 0 0.40 -0.55 1.20 -1.25 1.80 -1.05 0.90 -1.25 1.50 -1.25 4.05 0 2.65 -0.15 3.10 -1.50 4.35 -1.30 1.20 -1.50 1.75 -1.50 4.10 0 4.05 -0.35 4.90 -2.05 4.90 -0.90 0 -1.60 -0.35 -1.95 -0.95z"/>
  <path d="M666.65 287.80 c-1.70 -1.70 -2.15 -2.50 -2.15 -3.85 0 -1.95 0.40 -2.65 1.60 -3.10 1.20 -0.40 2.40 0.90 2.40 2.60 0 0.80 0.30 1.70 0.70 2 0.55 0.45 0.85 0.30 1.50 -0.70 1 -1.55 2.45 -1.60 3.45 -0.10 0.70 0.95 0.90 1 1.30 0.35 0.30 -0.40 0.55 -1.20 0.55 -1.80 0 -1.45 1.70 -2.85 2.90 -2.50 0.90 0.30 1.60 2.15 1.60 4.15 0 1.05 -4.35 5.15 -5.50 5.15 -0.60 0 -1.15 -0.35 -1.30 -0.75 -0.20 -0.40 -0.70 -0.75 -1.20 -0.75 -0.50 0 -1 0.35 -1.20 0.75 -0.50 1.40 -2.50 0.75 -4.65 -1.45z"/>
  <path d="M631.10 286.70 c-0.60 -0.40 -1.10 -1.05 -1.10 -1.45 0 -1 2 -2.25 3.55 -2.25 0.85 0 1.75 -0.45 2.30 -1.15 0.50 -0.65 1.30 -1.30 1.80 -1.50 0.45 -0.15 0.85 -0.50 0.85 -0.80 0 -0.25 0.60 -0.80 1.30 -1.30 1 -0.65 1.40 -0.70 2 -0.20 1.30 1.05 0.75 2.10 -3.05 5.80 -4.05 3.90 -5.45 4.40 -7.65 2.85z"/>
  <path d="M704.75 281.65 c-0.55 -0.15 -1.50 -0.80 -2.15 -1.45 -0.65 -0.70 -1.70 -1.20 -2.50 -1.20 -2.15 0 -3.60 -1.30 -3.60 -3.15 0.05 -4.75 1.70 -5.10 5.60 -1.10 1.70 1.75 3.05 2.75 3.80 2.75 2.90 0 4.10 2.25 2 3.70 -1.15 0.80 -1.40 0.85 -3.15 0.45z"/>
  <path d="M855.15 264.70 c-1.85 -2 -2.15 -2.65 -2.15 -4.55 0 -1.80 0.20 -2.25 1.15 -2.60 1.65 -0.60 2.15 -0.20 2.85 2.25 0.35 1.20 0.70 2.20 0.85 2.20 0.10 0 0.90 -0.50 1.70 -1.10 l1.55 -1.15 1.10 1.40 c1.55 1.90 2.30 1.75 2.30 -0.60 0 -2.25 1.10 -3.65 2.40 -3.20 1.25 0.45 1.60 1.15 1.60 3.15 0 1.40 -0.45 2.25 -2.15 4.15 -2.40 2.55 -3.50 2.90 -4.45 1.35 -0.35 -0.55 -0.85 -1 -1.15 -1 -0.30 0 -0.90 0.45 -1.40 1 -1.20 1.45 -1.85 1.25 -4.20 -1.30z"/>
  <path d="M820 264.15 c-0.80 -0.30 -2 -1.60 -2 -2.20 0 -0.90 1.70 -1.95 3.20 -1.95 1.25 0 2.10 -0.55 4.25 -2.80 2.95 -3.05 4.70 -3.50 4.95 -1.15 0.10 0.95 -0.55 2.05 -2.70 4.50 -1.60 1.75 -3.20 3.35 -3.65 3.55 -0.95 0.40 -3 0.45 -4.05 0.05z"/>
  <path d="M893.10 258.50 c-1.35 -0.20 -2.40 -0.70 -2.90 -1.40 -0.40 -0.60 -1.25 -1.10 -1.85 -1.10 -2.20 0 -3.35 -1.35 -3.35 -3.95 0 -2.35 0.60 -3.55 1.85 -3.55 0.75 0 4.65 3.75 4.65 4.45 0 0.60 1.30 1.05 3 1.05 2.55 0 3.70 3.40 1.55 4.40 -0.45 0.25 -1.75 0.25 -2.95 0.10z"/>
 </g>
</svg>